<?xml version="1.0" encoding="utf-8"?>
<!-- Generator: Adobe Illustrator 24.1.2, SVG Export Plug-In . SVG Version: 6.00 Build 0)  -->
<svg version="1.1" id="Capa_1" xmlns="http://www.w3.org/2000/svg" xmlns:xlink="http://www.w3.org/1999/xlink" x="0px" y="0px"
	 viewBox="0 0 889.4 713.6" style="enable-background:new 0 0 889.4 713.6;" xml:space="preserve">
<style type="text/css">
	.st0{fill:#020203;}
	.st1{fill:url(#SVGID_1_);}
	.st2{fill:url(#SVGID_2_);}
	.st3{fill:url(#SVGID_3_);}
	.st4{fill:url(#SVGID_4_);}
	.st5{fill:#FFFFFF;}
</style>
<g>
	<g>
		<g>
			<path class="st0" d="M201.5,67.7c-1.4,76.4,0.3,152.8-0.5,229.2c-0.2,60.4,0,120.7,0,181c-0.6,15.5,4.3,31.5,16.9,42
				c21.8,21.4,63.5,17.2,79.7-8.4c11-15.1,8.7-34.3,8.9-51.6c-1.1-48.2,1.6-96.4-1.6-144.4c3.9-60.5-0.8-121.6,2.2-182.2
				c2.4-28.5,25.7-51.7,53.3-60.2c-28-16.3-56.1-32.4-85-47C244.1,10.7,202.2,33.9,201.5,67.7z M325.9,133.8
				c-1.9,23.6-0.3,47.2-0.5,70.9c-0.5,51.6-0.2,103.2-0.2,154.8c0.7,47.8-0.1,95.6-0.1,143.4c26.8-16.4,55.1-30.3,82-46.4
				c11.3-6.4,16.9-18.3,22.4-29.1l0.9,0.8c-0.4-58.5,0.2-117-0.2-175.5c1.3-27.4-5.1-58.4,13-82.1c9.7-14.4,26.3-22.3,41.6-30.3
				c-30.1-14.4-57.6-33.4-88-47C366.7,80.9,328.7,102.5,325.9,133.8z M452.1,193.3c-5.3,22.1-1.9,45.2-2.6,67.7
				c-0.1,16.5-0.2,33-0.1,49.5c-0.2,41.2,0.4,82.5-0.6,123.7c19.5-11.1,38.9-22.2,58.8-32.6c14.4-8.5,31.4-15.5,40.1-30.3
				c9.7-16.1,6.3-35.5,6.8-53.3c0.6-25.9-4.5-54.8,11.7-77.6c9.6-15.3,26.7-23.5,42.9-30.7c-29.6-15.1-57.4-33.4-87.7-47.2
				C494.6,151.2,460.3,166.2,452.1,193.3z M574.5,263.2c-0.8,17-1.1,34.1-0.7,51.1c0.2,17,0,34-0.3,51c11.4-6.7,22.9-13.2,34.5-19.7
				c20.3-10.2,40.2-21.1,58.4-34.5l1.2,0.7c6.1-13.2,13.9-26.9,10.9-41.8c-3.3-29.9-39.2-51.9-68.6-40.3
				C592.5,234.1,582.7,249.3,574.5,263.2z"/>
		</g>
	</g>
	<linearGradient id="SVGID_1_" gradientUnits="userSpaceOnUse" x1="529.014" y1="158.697" x2="529.014" y2="434.2407">
		<stop  offset="0" style="stop-color:#65C1C0"/>
		<stop  offset="1" style="stop-color:#7E77B6"/>
	</linearGradient>
	<path class="st1" d="M521.5,162.5c-26.9-11.3-61.1,3.7-69.4,30.8c-5.3,22.1-1.9,45.2-2.6,67.7c-0.1,16.5-0.2,33-0.1,49.5
		c-0.2,41.2,0.4,82.5-0.6,123.7c19.5-11.1,38.9-22.2,58.8-32.6c14.4-8.5,31.4-15.5,40.1-30.3c9.7-16.1,6.3-35.5,6.8-53.3
		c0.6-25.9-4.5-54.8,11.7-77.6c9.6-15.3,26.7-23.5,42.9-30.7C579.6,194.6,551.8,176.3,521.5,162.5z"/>
	<g>
		<linearGradient id="SVGID_2_" gradientUnits="userSpaceOnUse" x1="280.6452" y1="21.1449" x2="280.6452" y2="533.5985">
			<stop  offset="0" style="stop-color:#7761A7"/>
			<stop  offset="1" style="stop-color:#554898"/>
		</linearGradient>
		<path class="st2" d="M275.4,25.9c-31.3-15.2-73.2,8-73.9,41.8c-1.4,76.4,0.3,152.8-0.5,229.2c-0.2,60.4,0,120.7,0,181
			c-0.6,15.5,4.3,31.5,16.9,42c21.8,21.4,63.5,17.2,79.7-8.4c11-15.1,8.7-34.3,8.9-51.6c-1.1-48.2,1.6-96.4-1.5-144.4
			c3.9-60.5-0.8-121.6,2.2-182.2c2.4-28.5,25.7-51.7,53.3-60.2C332.4,56.6,304.3,40.5,275.4,25.9z"/>
		<linearGradient id="SVGID_3_" gradientUnits="userSpaceOnUse" x1="626.2789" y1="226.6033" x2="626.2789" y2="365.3436">
			<stop  offset="0" style="stop-color:#DB7D73"/>
			<stop  offset="1" style="stop-color:#5C4696"/>
		</linearGradient>
		<path class="st3" d="M678.5,270c-3.3-29.9-39.2-51.9-68.6-40.3c-17.3,4.4-27.1,19.5-35.3,33.5c-0.8,17-1.1,34.1-0.7,51.1
			c0.2,17,0,34-0.3,51c11.4-6.7,22.9-13.2,34.5-19.7c20.3-10.2,40.2-21.1,58.4-34.5l1.2,0.7C673.6,298.6,681.4,284.9,678.5,270z"/>
		<linearGradient id="SVGID_4_" gradientUnits="userSpaceOnUse" x1="404.9214" y1="89.7223" x2="404.9214" y2="502.8411">
			<stop  offset="0" style="stop-color:#DE826D"/>
			<stop  offset="1" style="stop-color:#604596"/>
		</linearGradient>
		<path class="st4" d="M396.9,93.3c-30.2-12.3-68.2,9.2-70.9,40.5c-1.9,23.6-0.3,47.2-0.5,70.9c-0.5,51.6-0.2,103.2-0.2,154.8
			c0.7,47.8-0.1,95.6-0.1,143.4c26.8-16.4,55.1-30.3,82-46.4c11.3-6.4,16.9-18.3,22.4-29.1l0.9,0.8c-0.4-58.5,0.2-117-0.2-175.5
			c1.3-27.4-5.1-58.4,13-82.1c9.7-14.4,26.3-22.3,41.6-30.3C454.7,125.9,427.2,106.9,396.9,93.3z"/>
	</g>
</g>
<g>
	<g>
		<path class="st5" d="M122.5,606.5c6.1,0,10.7,1.8,13.6,5.3c2.9,3.5,3.7,8.2,2.3,14.1l-6.8,30.9c-1.4,5.9-4.3,10.6-8.8,14.1
			c-4.5,3.5-9.8,5.3-15.8,5.3H34.2c-6.1,0-10.7-1.8-13.5-5.3c-2.9-3.5-3.7-8.2-2.4-14.1l3.6-16.7H65l-4.5,20.7h27.1l8.6-38.9h-50
			c-6.1,0-10.7-1.8-13.6-5.3c-2.9-3.5-3.7-8.2-2.3-14.1l6.8-30.9c1.4-5.9,4.3-10.6,8.8-14.1c4.5-3.5,9.8-5.3,15.8-5.3h72.9
			c6.1,0,10.7,1.8,13.6,5.2c2.9,3.5,3.7,8.2,2.3,14l-3.6,16.7h-43.2l4.5-20.5H81.2l-8.6,38.9H122.5z"/>
		<path class="st5" d="M176.7,676.3c-6.1,0-10.7-1.8-13.6-5.3c-2.9-3.5-3.7-8.2-2.3-14.1l14.7-66.2H156l3-13.7h19.4l5.5-24.8h40
			l-5.5,24.8h19.5l-3,13.7h-19.5l-16,72H219l-3,13.7H176.7z"/>
		<path class="st5" d="M332.9,590.7H294l-19.2,85.6h-40l18.6-83.8c1-4.6,3.4-8.3,7-11.2c3.7-2.9,7.9-4.3,12.7-4.3h62.8L332.9,590.7z
			"/>
		<path class="st5" d="M342.6,592.5c1-4.6,3.4-8.3,7-11.2c3.7-2.9,7.9-4.3,12.7-4.3h69.2c4.8,0,8.3,1.4,10.6,4.3
			c2.3,2.9,3,6.6,2,11.2L431.7,649h-61.5l-3.2,13.7h61.5l-3,13.7h-81.2c-6.1,0-10.7-1.8-13.6-5.3c-2.9-3.5-3.7-8.2-2.3-14.1
			L342.6,592.5z M383.2,590.7l-10,44.3h21.6l10-44.3H383.2z"/>
		<path class="st5" d="M543.2,676.3h-81c-6.1,0-10.7-1.8-13.6-5.3c-2.9-3.5-3.7-8.2-2.3-14.1l8.1-36.9c1-4.6,3.3-8.3,7-11.2
			c3.6-2.9,7.8-4.3,12.6-4.3h45.5l3.2-13.9h-41.7l3-13.7h65.4c4.8,0,8.3,1.4,10.6,4.3c2.3,2.9,3,6.6,2,11.2L543.2,676.3z
			 M494.7,618.4l-10,44.3h21.6l10-44.3H494.7z"/>
		<path class="st5" d="M725.5,676.3h-40l19.2-85.6H683l-19.2,85.6H624l19.2-85.6h-21.6l-19.2,85.6h-40l22.2-99.3h147
			c4.8,0,8.3,1.4,10.6,4.3c2.3,2.9,3,6.6,2,11.2L725.5,676.3z"/>
		<path class="st5" d="M756.7,687.5h41.4l2.4-11.2H759c-6.1,0-10.7-1.8-13.6-5.3c-2.9-3.5-3.7-8.2-2.3-14.1l17.9-79.9h40l-19,85.6
			h21.6l19-85.6h39.8l-23.1,104.7c-1.4,5.9-4.3,10.6-8.8,14.1c-4.5,3.5-9.8,5.3-15.8,5.3h-61.1L756.7,687.5z"/>
	</g>
</g>
</svg>
